<svg xmlns="http://www.w3.org/2000/svg" viewBox="0 0 24 24" id="pepsi"><path fill="#FFF" d="M12 .003C5.37.003.003 5.37.003 12S5.37 23.997 12 23.997 23.997 18.63 23.997 12C23.997 5.369 18.63.003 12 .003z"></path><path fill="#005992" d="M20.826 6.3c.206.693.335 1.412.335 2.156 0 2.439-1.21 4.57-3.037 5.93-3.165 2.336-7.798 2.336-14.18 4.339a10.448 10.448 0 0 0 8.055 3.774c5.816 0 10.5-4.698 10.5-10.474 0-2.131-.618-4.082-1.673-5.725z"></path><path fill="#ED1A38" d="M18.304 3.604a10.513 10.513 0 0 0-6.305-2.105c-5.816 0-10.5 4.698-10.5 10.5 0 2.336.772 4.493 2.059 6.213 7.051-2.054 12.636-7.574 14.746-14.608z"></path></svg>